<?xml version="1.0" encoding="UTF-8" standalone="no"?>
<svg
   xmlns:dc="http://purl.org/dc/elements/1.1/"
   xmlns:cc="http://creativecommons.org/ns#"
   xmlns:rdf="http://www.w3.org/1999/02/22-rdf-syntax-ns#"
   xmlns:svg="http://www.w3.org/2000/svg"
   xmlns="http://www.w3.org/2000/svg"
   width="1024"
   height="1024"
   viewBox="0 0 270.93333 270.93334"
   version="1.1"
   id="svg8">
  <defs
     id="defs2" />
  <metadata
     id="metadata5">
    <rdf:RDF>
      <cc:Work
         rdf:about="">
        <dc:format>image/svg+xml</dc:format>
        <dc:type
           rdf:resource="http://purl.org/dc/dcmitype/StillImage" />
        <dc:title></dc:title>
      </cc:Work>
    </rdf:RDF>
  </metadata>
  <g
     id="layer1"
     transform="translate(-94.08135,-111.46142)">
    <path
       style="fill:#888888;fill-opacity:1;stroke:#555555;stroke-width:2.64583;stroke-linecap:square;stroke-linejoin:miter;stroke-miterlimit:4;stroke-dasharray:none;stroke-opacity:1;paint-order:markers fill stroke"
       d="m 156.19435,331.49166 -34.74642,1.66827 v -64.67354 -64.67355 l 27.02497,1.13334 27.02505,1.13333 -19.3036,7.25335 -19.3036,7.24428 v 48.05069 48.04978 l 27.02506,6.57334 27.02497,6.57335 z m 84.93577,0 -34.74643,-1.66827 27.02506,-6.57334 27.02496,-6.57335 v -48.19394 -48.19394 l -27.02496,-6.57335 -27.02506,-6.57334 34.74643,-1.66827 34.74651,-1.66827 v 64.67354 64.67355 z m -23.16429,-43.1166 -34.74642,1.66827 v -64.67355 -64.67354 l 34.74642,1.66827 34.74652,1.66827 -27.02506,6.57334 -27.02506,6.57335 v 48.19394 48.19394 l 27.02506,6.57335 27.02506,6.57334 z m 92.65722,0.544 -27.02496,-1.13334 19.3036,-7.24428 19.3035,-7.24427 v -48.05069 -48.04979 l -27.02496,-6.57334 -27.02506,-6.57334 34.74652,-1.66827 34.74642,-1.66827 v 64.67354 64.67354 z"
       id="path1943" />
  </g>
</svg>
